<svg xmlns="http://www.w3.org/2000/svg" width="958" height="256" overflow="hidden"><defs><clipPath id="a"><path d="M1444 268h958v256h-958z"/></clipPath></defs><g fill-rule="evenodd" clip-path="url(#a)" transform="translate(-1444 -268)"><path fill="#ED1C24" d="m1861.969 448.152-5.137 7.756c-10.409-.971-35.114-8.727-49.827-24.933-14.712 16.206-39 23.962-49.827 24.933l-5.135-7.756c10.41-1.524 39.28-14.548 45.246-34.492h19.431c5.969 19.944 34.838 33.107 45.249 34.492m6.105-51.53v8.868h-122v-8.868h51.91v-12.19h-28.73c-4.998 0-9.3-3.877-9.3-9.14v-21.194h74.395v-12.325h-74.396v-8.866h92.022v30.194h-74.117v8.452c0 2.77.973 3.739 3.47 3.739h72.311v9.14h-37.612v12.19ZM1975.34 331.067h17.682v124h-17.683Zm-44 78.367c6.961 0 10.86.136 13.923-2.497v-27.604h-25.482v-9.153h25.482v-39.113h17.684v123.998h-17.684v-38.557c-2.505 1.387-6.962 2.218-13.924 2.218h-36.343c-7.24 0-11.974-5.41-11.974-11.789v-71.019h50.684v9.297h-32.861v59.643c0 2.772.974 4.576 4.317 4.576ZM2118.504 355.663h20.613v9.341h-20.613v27.742h-18.107v-62.733h18.107Zm-89.421 3.902c0 9.063 4.596 21.051 17.69 21.051 11.7 0 17.828-8.92 17.828-21.05 0-12.685-5.85-21.468-17.688-21.468-11.422 0-17.83 8.783-17.83 21.467m71.314 64.13v-14.22h-71.87v-9.34h89.977v32.48h-71.87v10.874c0 2.092.837 3.207 3.204 3.207h70.617v9.2h-80.507c-7.382 0-11.282-4.46-11.282-11.292v-20.909Zm-17.41-64.267c0 18.123-15.6 30.111-36.074 30.111-20.337 0-35.796-11.988-35.796-30.111 0-18.402 15.459-30.532 35.796-30.532 20.892 0 36.074 12.13 36.074 30.532M2239.853 331.067h18.181v124h-18.181Zm-70.917 76.7c0 2.081.831 3.192 3.192 3.192h26.922v-66.163h-30.114Zm-6.661 12.346c-7.356 0-11.242-4.437-11.242-11.233v-73.237h65.642v84.47ZM2325.206 412.91h29.113v-15.63h-29.113Zm-13.313 30.846c0 2.074.83 3.182 3.193 3.182h51.572v-24.9h-54.765Zm-.276-109.69v27.667c0 2.35-.136 4.563 4.437 4.563l68.624.136v9.13h-81.93c-9.151 0-9.151-6.774-9.151-11.478v-30.018Zm-5.126 78.844v-15.631h-27.452v-8.988h122v8.988h-28.005v15.63h11.781v43.157h-79.854c-7.344 0-11.228-4.424-11.228-11.204V412.91ZM1624.732 501.665c-28.876 28.87-76.116 28.87-105 0l-53.33-53.338c-28.886-28.885-28.886-76.129-.01-105.014l53.34-53.338c28.884-28.876 76.124-28.876 105 0l53.351 53.338c28.871 28.885 28.871 76.129 0 105.014l-53.351 53.338"/><path fill="#FFF" d="M1540.766 474.238a7.976 7.976 0 0 1-7.995-7.653c-.07-2.14.654-4.18 2.115-5.767a7.993 7.993 0 0 1 5.549-2.572c4.406-.206 8.14 3.264 8.324 7.673.184 4.404-3.251 8.134-7.669 8.319h-.324M1569.356 328.474c-4.318 0-7.778 1.36-10.579 4.15-6.036 6.017-9.212 18.424-8.92 34.961.341 20.39 5.175 60.378 21.17 80.977 2.595 3.326 5.374 6.023 8.284 7.907 2.812 1.886 5.97 3.697 10.91 3.697 1.327 0 2.775-.144 4.282-.407 9.16-2.219 20.632-12.424 29.19-26.056 1.297-2.075 3.528-3.329 5.976-3.329 1.315 0 2.624.394 3.76 1.11 1.576.992 2.683 2.564 3.109 4.412a7.003 7.003 0 0 1-.907 5.351c-10.779 17.214-25.053 29.306-38.143 32.347a.95.95 0 0 1-.324.086c-2.411.415-4.748.641-7.008.641-8.424 0-14.378-3.205-18.63-6.01-4.191-2.78-8.11-6.5-11.63-11.054-22.526-28.982-24.058-83.314-24.156-89.41-.244-14.482 1.837-34.042 13.083-45.26 5.506-5.466 12.383-8.266 20.48-8.266h1.334c8.097 0 14.984 2.8 20.477 8.266 11.263 11.185 13.344 30.778 13.094 45.26-.243 15.062-3.014 44.233-18.584 70.413a7.107 7.107 0 0 1-6.07 3.444 6.81 6.81 0 0 1-3.613-1.025c-3.339-1.98-4.433-6.334-2.451-9.696 10.922-18.282 16.179-38.443 16.596-63.398.285-16.537-2.89-28.944-8.92-34.961-2.8-2.79-6.244-4.15-10.58-4.15h-1.23"/></g></svg>